<svg xmlns="http://www.w3.org/2000/svg" xmlns:v="https://svgstorm.com"
viewBox = "0 0 32 32"
width="32"
height="32">
<g fill="#008080" fill-opacity="0.01" stroke="None">
<path d="
M 0.00 1.00 
C 0.34 0.84 0.84 0.34 1.00 0.00
L 0.00 0.00
L 0.00 1.00 Z"/>
</g>
<g fill="#15B782" fill-opacity="0.49" stroke="None">
<path d="
M 0.00 1.00 
L 0.00 2.00
C 0.83 1.59 1.87 1.03 2.00 0.00
L 1.00 0.00
C 0.84 0.34 0.34 0.84 0.00 1.00 Z"/>
</g>
<g fill="#24B987" fill-opacity="1.00" stroke="None">
<path d="
M 0.00 2.00 
L 0.00 29.00
C 0.79 30.24 2.18 30.75 3.00 32.00
L 29.00 32.00
C 30.24 31.21 30.75 29.82 32.00 29.00
L 32.00 2.00
C 31.17 1.59 30.13 1.03 30.00 0.00
L 2.00 0.00
C 1.87 1.03 0.83 1.59 0.00 2.00
M 10.00 6.00 
C 9.06 12.66 6.32 18.90 7.00 26.00
C -0.92 25.55 4.39 7.35 10.00 6.00
M 22.00 11.00 
C 23.06 8.57 24.69 5.28 28.00 6.00
C 27.84 9.62 24.70 12.85 22.00 15.00
C 21.76 19.92 24.63 25.77 29.00 20.00
C 29.31 27.50 18.66 27.72 19.00 20.00
C 16.13 22.04 14.75 27.35 10.00 26.00
C 11.63 21.73 24.59 15.68 14.97 12.03 C 5.35 8.38 19.15 1.92 22.00 11.00 Z"/>
</g>
<g fill="#15B782" fill-opacity="0.49" stroke="None">
<path d="
M 32.00 2.00 
L 32.00 1.00
C 31.67 0.84 31.17 0.34 31.00 0.00
L 30.00 0.00
C 30.13 1.03 31.17 1.59 32.00 2.00 Z"/>
</g>
<g fill="#008080" fill-opacity="0.01" stroke="None">
<path d="
M 32.00 1.00 
L 32.00 0.00
L 31.00 0.00
C 31.17 0.34 31.67 0.84 32.00 1.00 Z"/>
</g>
<g fill="#F4FBF9" fill-opacity="1.00" stroke="None">
<path d="
M 10.00 6.00 
C 4.39 7.35 -0.92 25.55 7.00 26.00
C 6.32 18.90 9.06 12.66 10.00 6.00 Z"/>
</g>
<g fill="#F3FBF8" fill-opacity="1.00" stroke="None">
<path d="
M 22.00 11.00 
C 19.15 1.92 5.35 8.38 14.97 12.03 C 24.59 15.68 11.63 21.73 10.00 26.00
C 14.75 27.35 16.13 22.04 19.00 20.00
C 18.66 27.72 29.31 27.50 29.00 20.00
C 24.63 25.77 21.76 19.92 22.00 15.00
C 24.70 12.85 27.84 9.62 28.00 6.00
C 24.69 5.28 23.06 8.57 22.00 11.00
M 16.00 8.00 
C 16.60 8.60 15.87 10.21 14.74 9.19 C 13.61 8.16 15.54 7.54 16.00 8.00 Z"/>
</g>
<g fill="#4AC59C" fill-opacity="1.00" stroke="None">
<path d="
M 16.00 8.00 
C 15.54 7.54 13.61 8.16 14.74 9.19 C 15.87 10.21 16.60 8.60 16.00 8.00 Z"/>
</g>
<g fill="#15B782" fill-opacity="0.69" stroke="None">
<path d="
M 0.00 31.00 
C 0.34 31.17 0.84 31.67 1.00 32.00
L 3.00 32.00
C 2.18 30.75 0.79 30.24 0.00 29.00
L 0.00 31.00 Z"/>
</g>
<g fill="#15B782" fill-opacity="0.69" stroke="None">
<path d="
M 29.00 32.00 
L 31.00 32.00
C 31.17 31.67 31.67 31.17 32.00 31.00
L 32.00 29.00
C 30.75 29.82 30.24 31.21 29.00 32.00 Z"/>
</g>
<g fill="#008080" fill-opacity="0.01" stroke="None">
<path d="
M 0.00 32.00 
L 1.00 32.00
C 0.84 31.67 0.34 31.17 0.00 31.00
L 0.00 32.00 Z"/>
</g>
<g fill="#008080" fill-opacity="0.01" stroke="None">
<path d="
M 31.00 32.00 
L 32.00 32.00
L 32.00 31.00
C 31.67 31.17 31.17 31.67 31.00 32.00 Z"/>
</g>
</svg>